<svg width="64" height="64" viewBox="0 0 64 64" fill="none" xmlns="http://www.w3.org/2000/svg">
<path d="M31.2813 19.625H33.7188C34.0007 19.625 34.2739 19.5272 34.4918 19.3483C34.7097 19.1694 34.8588 18.9204 34.9137 18.6439L37.3512 6.45641C37.3866 6.27967 37.3824 6.09726 37.3387 5.92237C37.2951 5.74747 37.2131 5.58446 37.0988 5.4451C36.9844 5.30575 36.8406 5.19353 36.6776 5.11655C36.5146 5.03958 36.3365 4.99977 36.1563 5H28.8438C28.6635 4.99977 28.4854 5.03958 28.3224 5.11655C28.1594 5.19353 28.0156 5.30575 27.9012 5.4451C27.7869 5.58446 27.705 5.74747 27.6613 5.92237C27.6177 6.09726 27.6134 6.27967 27.6488 6.45641L30.0863 18.6439C30.1412 18.9204 30.2903 19.1694 30.5082 19.3483C30.7261 19.5272 30.9993 19.625 31.2813 19.625V19.625Z" fill="#4568DC"/>
<path d="M38.9309 10.9858L37.3035 19.1236C37.1377 19.9523 36.69 20.698 36.0364 21.2338C35.3829 21.7697 34.5639 22.0625 33.7188 22.0625H31.2812C30.4362 22.0625 29.6172 21.7697 28.9637 21.2339C28.3102 20.6981 27.8625 19.9525 27.6967 19.1238L26.0691 10.9858C22.2611 12.3304 18.9616 14.8188 16.6222 18.1106C14.2827 21.4024 13.0176 25.3366 13 29.375V47.6563C13 47.8569 13.0496 48.0544 13.1442 48.2313C13.2389 48.4082 13.3758 48.559 13.5427 48.6703L28.1677 58.4203C28.3513 58.5423 28.5646 58.6123 28.7848 58.6228C29.005 58.6333 29.224 58.5839 29.4184 58.4799C29.6127 58.3759 29.7753 58.2211 29.8887 58.0321C30.0021 57.843 30.0622 57.6267 30.0625 57.4063V42.7813C30.0625 42.6212 30.031 42.4627 29.9698 42.3149C29.9085 42.167 29.8187 42.0327 29.7055 41.9195L20.3125 36.6875V29.375L30.0625 34.25L32.5 39.125L34.9375 34.25L44.6875 29.375V36.6875L35.2945 41.9194C35.1813 42.0325 35.0915 42.1669 35.0302 42.3148C34.9689 42.4627 34.9374 42.6212 34.9375 42.7813V57.4063C34.9378 57.6267 34.9979 57.843 35.1113 58.0321C35.2247 58.2211 35.3873 58.3759 35.5816 58.4799C35.776 58.5839 35.995 58.6333 36.2152 58.6228C36.4354 58.6123 36.6487 58.5423 36.8323 58.4203L51.4573 48.6703C51.6242 48.559 51.7611 48.4082 51.8558 48.2313C51.9505 48.0544 52 47.8569 52 47.6563V29.375C51.9824 25.3366 50.7173 21.4024 48.3778 18.1106C46.0384 14.8188 42.7389 12.3304 38.9309 10.9858Z" fill="url(#paint0_linear)"/>
<defs>
<linearGradient id="paint0_linear" x1="14.56" y1="14.3886" x2="55.3542" y2="19.4754" gradientUnits="userSpaceOnUse">
<stop stop-color="#4568DC"/>
<stop offset="1" stop-color="#B06AB3"/>
</linearGradient>
</defs>
</svg>
